<?xml version="1.0" encoding="UTF-8"?>
<svg version="1.1" xmlns="http://www.w3.org/2000/svg" width="512" height="512">
<path d="M0 0 C168.96 0 337.92 0 512 0 C512 168.96 512 337.92 512 512 C343.04 512 174.08 512 0 512 C0 343.04 0 174.08 0 0 Z " fill="#004D34" transform="translate(0,0)"/>
<path d="M0 0 C0.88278625 0.00215515 1.76557251 0.0043103 2.67510986 0.00653076 C24.39199671 0.0915101 44.21408816 3.43325833 65.30322266 8.55273438 C68.65742684 9.36581145 72.01243711 10.17423927 75.37109375 10.96875 C76.40161865 11.21431641 77.43214355 11.45988281 78.49389648 11.71289062 C82.82741229 12.59562388 87.06865077 13.20742256 91.4375 12.3125 C94.26174288 10.12227082 95.85258603 8.48232793 97.4375 5.3125 C99.4175 5.3125 101.3975 5.3125 103.4375 5.3125 C103.83654149 13.56427603 104.22805578 21.81636562 104.61095428 30.06890488 C104.78912558 33.90434539 104.96952295 37.73964911 105.15576172 41.57470703 C106.10560895 61.17375702 106.66983236 80.68518132 106.4375 100.3125 C103.7975 100.3125 101.1575 100.3125 98.4375 100.3125 C98.17235596 99.7863208 97.90721191 99.2601416 97.6340332 98.71801758 C81.34892859 66.58156886 60.61366886 25.89306556 24.8828125 12.34375 C13.14736501 8.75330148 -2.86213553 7.91546007 -14.21875 13.0546875 C-14.9921875 13.46976563 -15.765625 13.88484375 -16.5625 14.3125 C-17.4184375 14.74820313 -18.274375 15.18390625 -19.15625 15.6328125 C-35.95642307 24.89314886 -45.35325519 42.94226894 -50.80249023 60.76098633 C-58.21480824 86.54571648 -59.71724049 113.63039978 -59.73046875 140.31640625 C-59.73370009 141.89371263 -59.73706539 143.47101875 -59.74055481 145.04832458 C-59.74648118 148.32983085 -59.74840156 151.61131104 -59.74780273 154.89282227 C-59.74772168 158.20179738 -59.75464296 161.51063345 -59.76831055 164.81958008 C-59.86438635 188.47567945 -59.70985805 212.01848163 -55.4375 235.375 C-55.22649658 236.53273926 -55.01549316 237.69047852 -54.7980957 238.88330078 C-50.32371658 261.91917722 -42.14601629 285.62440158 -22.6875 300.1875 C-10.14086633 308.2777836 2.66520031 308.77277003 17.18359375 306.8046875 C23.15511908 305.50750222 27.35524475 303.91812131 31.4375 299.3125 C35.3351659 291.92037503 35.59035341 284.79257712 35.64282227 276.63525391 C35.65272186 275.67852783 35.66262146 274.72180176 35.67282104 273.73608398 C35.70430172 270.58710163 35.72914021 267.43810422 35.75390625 264.2890625 C35.77448738 262.1004498 35.79548416 259.91184098 35.81687927 257.72323608 C35.8719802 251.97266787 35.92144219 246.2220645 35.96972656 240.47143555 C36.02002919 234.59941492 36.07566947 228.72744512 36.13085938 222.85546875 C36.2382944 211.34118772 36.33927829 199.82686332 36.4375 188.3125 C27.1975 188.3125 17.9575 188.3125 8.4375 188.3125 C8.4375 185.0125 8.4375 181.7125 8.4375 178.3125 C50.3475 178.3125 92.2575 178.3125 135.4375 178.3125 C135.4375 181.6125 135.4375 184.9125 135.4375 188.3125 C129.8275 188.3125 124.2175 188.3125 118.4375 188.3125 C118.4375 229.2325 118.4375 270.1525 118.4375 312.3125 C111.4375 312.3125 111.4375 312.3125 109.28515625 310.88671875 C108.40150391 309.95279297 108.40150391 309.95279297 107.5 309 C101.24950326 303.08477895 95.86793649 302.05327322 87.40551758 302.14526367 C82.70732174 302.40998886 78.25922687 303.36380946 73.6875 304.4375 C72.19996216 304.77092407 72.19996216 304.77092407 70.68237305 305.11108398 C64.75759084 306.46236651 58.89717099 307.98657546 53.04150391 309.60839844 C23.19879806 317.80378906 -8.0848288 320.606263 -38.5625 314.3125 C-39.40683594 314.14621094 -40.25117188 313.97992188 -41.12109375 313.80859375 C-64.76715555 309.06532727 -86.20638168 300.19641384 -104.5625 284.3125 C-105.36945313 283.64992188 -106.17640625 282.98734375 -107.0078125 282.3046875 C-133.49606763 259.80212593 -146.33598955 223.956187 -149.12890625 190.1328125 C-149.70776175 181.29774282 -149.7845721 172.46292399 -149.80273438 163.61108398 C-149.81240159 160.77883077 -149.84351875 157.94731741 -149.875 155.11523438 C-149.97056037 138.64059106 -148.22608509 122.45280088 -144.25 106.4375 C-144.03690186 105.5707666 -143.82380371 104.7040332 -143.60424805 103.81103516 C-138.67259261 84.51635718 -129.38426322 65.58949448 -116.5625 50.3125 C-115.50289062 49.0440625 -115.50289062 49.0440625 -114.421875 47.75 C-96.5051419 27.12642233 -73.19510966 12.03354994 -46.5625 5.3125 C-45.59699219 5.04050781 -44.63148438 4.76851563 -43.63671875 4.48828125 C-29.19144056 0.5660534 -14.87092372 -0.06543052 0 0 Z " fill="#FDFDFD" transform="translate(263.5625,97.6875)"/>
</svg>
